<svg width="300" height="94" viewBox="0 0 300 94" fill="none" xmlns="http://www.w3.org/2000/svg">
<ellipse cx="85.0244" cy="47.0448" rx="27.9292" ry="27.9482" fill="black"/>
<path d="M84.5491 62.5534C81.8966 62.4838 79.3062 61.7352 77.025 60.3788C74.7439 59.0225 72.8482 57.1037 71.5189 54.8057C69.7315 51.8651 69.0042 48.4007 69.4582 44.9889C69.9121 41.5772 71.5199 38.4239 74.014 36.0538C75.6477 34.5108 77.4735 33.1853 79.4463 32.1101C85.7646 28.4748 97.3445 21.8822 97.3445 21.8822C90.8985 18.7042 83.4775 18.1304 76.6201 20.2798C69.7626 22.4292 63.9947 27.1368 60.512 33.4269C57.0274 39.7158 56.0927 47.1047 57.9014 54.064C59.7101 61.0234 64.1236 67.0203 70.2284 70.8134L84.5491 62.5534Z" fill="#9BADE4"/>
<path d="M85.423 31.451C88.0756 31.5192 90.6663 32.2673 92.9474 33.6237C95.2285 34.9802 97.1237 36.8995 98.4517 39.1983C102.069 45.4702 101.068 53.0704 95.9459 57.9183C94.3098 59.4619 92.4834 60.7902 90.5111 61.871C84.1933 65.4983 72.6118 72.097 72.6118 72.097C79.0604 75.2901 86.4904 75.874 93.3581 73.7275C100.226 71.581 106.003 66.8691 109.489 60.5708C112.978 54.2736 113.909 46.8742 112.091 39.9079C110.273 32.9417 105.844 26.9435 99.7235 23.1582L85.423 31.451Z" fill="#38DEC8"/>
<ellipse cx="84.7488" cy="47.2285" rx="11.0247" ry="11.0322" fill="#F06E6C"/>
<ellipse cx="84.8407" cy="47.137" rx="6.06357" ry="6.06769" fill="black"/>
<path d="M136.756 32.7784C136.699 32.1534 136.446 31.6676 135.997 31.321C135.554 30.9688 134.92 30.7926 134.097 30.7926C133.551 30.7926 133.097 30.8636 132.733 31.0057C132.369 31.1477 132.097 31.3438 131.915 31.5938C131.733 31.8381 131.639 32.1193 131.634 32.4375C131.622 32.6989 131.673 32.929 131.787 33.1278C131.906 33.3267 132.077 33.5028 132.298 33.6562C132.526 33.804 132.798 33.9347 133.116 34.0483C133.435 34.1619 133.793 34.2614 134.19 34.3466L135.69 34.6875C136.554 34.875 137.315 35.125 137.974 35.4375C138.639 35.75 139.196 36.1222 139.645 36.554C140.099 36.9858 140.443 37.483 140.676 38.0455C140.909 38.608 141.028 39.2386 141.034 39.9375C141.028 41.0398 140.75 41.9858 140.199 42.7756C139.648 43.5653 138.855 44.1705 137.821 44.5909C136.793 45.0114 135.551 45.2216 134.097 45.2216C132.636 45.2216 131.364 45.0028 130.278 44.5653C129.193 44.1278 128.349 43.4631 127.747 42.571C127.145 41.679 126.835 40.5511 126.818 39.1875H130.858C130.892 39.75 131.043 40.2188 131.31 40.5938C131.577 40.9688 131.943 41.2528 132.409 41.446C132.881 41.6392 133.426 41.7358 134.045 41.7358C134.614 41.7358 135.097 41.6591 135.494 41.5057C135.898 41.3523 136.207 41.1392 136.423 40.8665C136.639 40.5937 136.75 40.2812 136.756 39.929C136.75 39.5994 136.648 39.3182 136.449 39.0852C136.25 38.8466 135.943 38.642 135.528 38.4716C135.119 38.2955 134.597 38.1335 133.96 37.9858L132.136 37.5597C130.625 37.2131 129.435 36.6534 128.565 35.8807C127.696 35.1023 127.264 34.0511 127.27 32.7273C127.264 31.6477 127.554 30.7017 128.139 29.8892C128.724 29.0767 129.534 28.4432 130.568 27.9886C131.602 27.5341 132.781 27.3068 134.105 27.3068C135.457 27.3068 136.631 27.5369 137.625 27.9972C138.625 28.4517 139.401 29.0909 139.952 29.9148C140.503 30.7386 140.784 31.6932 140.795 32.7784H136.756ZM159.639 36.2727C159.639 38.1932 159.27 39.821 158.531 41.1562C157.793 42.4915 156.793 43.5057 155.531 44.1989C154.276 44.892 152.866 45.2386 151.304 45.2386C149.736 45.2386 148.324 44.8892 147.068 44.1903C145.813 43.4915 144.815 42.4773 144.077 41.1477C143.344 39.8125 142.977 38.1875 142.977 36.2727C142.977 34.3523 143.344 32.7244 144.077 31.3892C144.815 30.054 145.813 29.0398 147.068 28.3466C148.324 27.6534 149.736 27.3068 151.304 27.3068C152.866 27.3068 154.276 27.6534 155.531 28.3466C156.793 29.0398 157.793 30.054 158.531 31.3892C159.27 32.7244 159.639 34.3523 159.639 36.2727ZM155.327 36.2727C155.327 35.1364 155.165 34.1761 154.841 33.392C154.523 32.608 154.063 32.0142 153.46 31.6108C152.864 31.2074 152.145 31.0057 151.304 31.0057C150.469 31.0057 149.75 31.2074 149.148 31.6108C148.545 32.0142 148.082 32.608 147.759 33.392C147.44 34.1761 147.281 35.1364 147.281 36.2727C147.281 37.4091 147.44 38.3693 147.759 39.1534C148.082 39.9375 148.545 40.5312 149.148 40.9347C149.75 41.3381 150.469 41.5398 151.304 41.5398C152.145 41.5398 152.864 41.3381 153.46 40.9347C154.063 40.5312 154.523 39.9375 154.841 39.1534C155.165 38.3693 155.327 37.4091 155.327 36.2727ZM176.957 27.5455V45H173.378L166.432 34.9261H166.321V45H162.102V27.5455H165.733L172.602 37.6023H172.747V27.5455H176.957ZM179.61 45V27.5455H191.781V30.9716H183.829V34.5511H191.158V37.9858H183.829V41.5739H191.781V45H179.61ZM198.641 27.5455V45H194.423V27.5455H198.641ZM211.849 27.5455H216.06V38.804C216.06 40.1051 215.75 41.2386 215.131 42.2045C214.511 43.1648 213.648 43.9091 212.54 44.4375C211.432 44.9602 210.145 45.2216 208.679 45.2216C207.196 45.2216 205.901 44.9602 204.793 44.4375C203.685 43.9091 202.824 43.1648 202.21 42.2045C201.597 41.2386 201.29 40.1051 201.29 38.804V27.5455H205.509V38.4375C205.509 39.0398 205.639 39.5767 205.901 40.0483C206.168 40.5199 206.54 40.8892 207.017 41.1562C207.494 41.4233 208.048 41.5568 208.679 41.5568C209.31 41.5568 209.861 41.4233 210.332 41.1562C210.81 40.8892 211.182 40.5199 211.449 40.0483C211.716 39.5767 211.849 39.0398 211.849 38.4375V27.5455ZM218.704 27.5455H223.928L228.36 38.3523H228.565L232.996 27.5455H238.221V45H234.113V34.2784H233.968L229.775 44.8892H227.15L222.957 34.2188H222.812V45H218.704V27.5455ZM133.773 71H127.321V53.5455H133.764C135.543 53.5455 137.074 53.8949 138.358 54.5938C139.648 55.2869 140.642 56.2869 141.341 57.5938C142.04 58.8949 142.389 60.4517 142.389 62.2642C142.389 64.0824 142.04 65.6449 141.341 66.9517C140.648 68.2585 139.656 69.2614 138.366 69.9602C137.077 70.6534 135.545 71 133.773 71ZM131.54 67.4034H133.611C134.588 67.4034 135.415 67.2386 136.091 66.9091C136.773 66.5739 137.287 66.0312 137.634 65.2812C137.986 64.5256 138.162 63.5199 138.162 62.2642C138.162 61.0085 137.986 60.0085 137.634 59.2642C137.281 58.5142 136.761 57.9744 136.074 57.6449C135.392 57.3097 134.551 57.142 133.551 57.142H131.54V67.4034ZM161.327 62.2727C161.327 64.1932 160.957 65.821 160.219 67.1562C159.48 68.4915 158.48 69.5057 157.219 70.1989C155.963 70.892 154.554 71.2386 152.991 71.2386C151.423 71.2386 150.011 70.8892 148.756 70.1903C147.5 69.4915 146.503 68.4773 145.764 67.1477C145.031 65.8125 144.665 64.1875 144.665 62.2727C144.665 60.3523 145.031 58.7244 145.764 57.3892C146.503 56.054 147.5 55.0398 148.756 54.3466C150.011 53.6534 151.423 53.3068 152.991 53.3068C154.554 53.3068 155.963 53.6534 157.219 54.3466C158.48 55.0398 159.48 56.054 160.219 57.3892C160.957 58.7244 161.327 60.3523 161.327 62.2727ZM157.014 62.2727C157.014 61.1364 156.852 60.1761 156.528 59.392C156.21 58.608 155.75 58.0142 155.148 57.6108C154.551 57.2074 153.832 57.0057 152.991 57.0057C152.156 57.0057 151.438 57.2074 150.835 57.6108C150.233 58.0142 149.77 58.608 149.446 59.392C149.128 60.1761 148.969 61.1364 148.969 62.2727C148.969 63.4091 149.128 64.3693 149.446 65.1534C149.77 65.9375 150.233 66.5312 150.835 66.9347C151.438 67.3381 152.156 67.5398 152.991 67.5398C153.832 67.5398 154.551 67.3381 155.148 66.9347C155.75 66.5312 156.21 65.9375 156.528 65.1534C156.852 64.3693 157.014 63.4091 157.014 62.2727ZM163.79 53.5455H169.014L173.446 64.3523H173.651L178.082 53.5455H183.307V71H179.199V60.2784H179.054L174.861 70.8892H172.236L168.043 60.2188H167.898V71H163.79V53.5455ZM189.714 71H185.18L191.069 53.5455H196.685L202.575 71H198.04L193.941 57.9432H193.805L189.714 71ZM189.109 64.1307H198.586V67.3352H189.109V64.1307ZM208.673 53.5455V71H204.454V53.5455H208.673ZM226.176 53.5455V71H222.597L215.651 60.9261H215.54V71H211.321V53.5455H214.952L221.821 63.6023H221.966V53.5455H226.176ZM238.263 58.7784C238.207 58.1534 237.954 57.6676 237.505 57.321C237.062 56.9688 236.428 56.7926 235.604 56.7926C235.059 56.7926 234.604 56.8636 234.241 57.0057C233.877 57.1477 233.604 57.3438 233.423 57.5938C233.241 57.8381 233.147 58.1193 233.141 58.4375C233.13 58.6989 233.181 58.929 233.295 59.1278C233.414 59.3267 233.585 59.5028 233.806 59.6562C234.033 59.804 234.306 59.9347 234.624 60.0483C234.942 60.1619 235.3 60.2614 235.698 60.3466L237.198 60.6875C238.062 60.875 238.823 61.125 239.482 61.4375C240.147 61.75 240.704 62.1222 241.153 62.554C241.607 62.9858 241.951 63.483 242.184 64.0455C242.417 64.608 242.536 65.2386 242.542 65.9375C242.536 67.0398 242.258 67.9858 241.707 68.7756C241.156 69.5653 240.363 70.1705 239.329 70.5909C238.3 71.0114 237.059 71.2216 235.604 71.2216C234.144 71.2216 232.871 71.0028 231.786 70.5653C230.701 70.1278 229.857 69.4631 229.255 68.571C228.653 67.679 228.343 66.5511 228.326 65.1875H232.366C232.4 65.75 232.55 66.2188 232.817 66.5938C233.085 66.9688 233.451 67.2528 233.917 67.446C234.388 67.6392 234.934 67.7358 235.553 67.7358C236.121 67.7358 236.604 67.6591 237.002 67.5057C237.406 67.3523 237.715 67.1392 237.931 66.8665C238.147 66.5937 238.258 66.2812 238.263 65.929C238.258 65.5994 238.156 65.3182 237.957 65.0852C237.758 64.8466 237.451 64.642 237.036 64.4716C236.627 64.2955 236.104 64.1335 235.468 63.9858L233.644 63.5597C232.133 63.2131 230.942 62.6534 230.073 61.8807C229.204 61.1023 228.772 60.0511 228.778 58.7273C228.772 57.6477 229.062 56.7017 229.647 55.8892C230.232 55.0767 231.042 54.4432 232.076 53.9886C233.11 53.5341 234.289 53.3068 235.613 53.3068C236.965 53.3068 238.138 53.5369 239.133 53.9972C240.133 54.4517 240.908 55.0909 241.46 55.9148C242.011 56.7386 242.292 57.6932 242.303 58.7784H238.263Z" fill="#A7A7A7"/>
</svg>
